<svg width="16" height="16" viewBox="0 0 16 16" fill="none" xmlns="http://www.w3.org/2000/svg">
<path d="M1.33333 14V2C1.33333 1.82319 1.40357 1.65362 1.5286 1.5286C1.65362 1.40357 1.82319 1.33333 2 1.33333H5.33333V0H2C1.46957 0 0.960859 0.210714 0.585786 0.585786C0.210714 0.960859 0 1.46957 0 2L0 14C0 14.5304 0.210714 15.0391 0.585786 15.4142C0.960859 15.7893 1.46957 16 2 16H5.33333V14.6667H2C1.82319 14.6667 1.65362 14.5964 1.5286 14.4714C1.40357 14.3464 1.33333 14.1768 1.33333 14Z" fill="white"/>
<path d="M15.414 6.58602L12.3567 3.52869L11.414 4.47135L14.2567 7.31402L3.33203 7.33335V8.66669L14.294 8.64735L11.4127 11.5287L12.3554 12.4714L15.4127 9.41402C15.7878 9.03914 15.9987 8.53062 15.9989 8.0003C15.9992 7.46997 15.7888 6.96125 15.414 6.58602Z" fill="white"/>
</svg>
