<svg width="22" height="22" viewBox="0 0 22 22" fill="none" xmlns="http://www.w3.org/2000/svg">
<path d="M20.2484 14.8652V17.6152C20.2494 17.8705 20.1971 18.1232 20.0948 18.3571C19.9925 18.591 19.8425 18.801 19.6544 18.9736C19.4663 19.1462 19.2442 19.2776 19.0024 19.3594C18.7605 19.4412 18.5043 19.4715 18.25 19.4486C15.4293 19.1421 12.7198 18.1782 10.3392 16.6344C8.12436 15.227 6.24658 13.3492 4.83919 11.1344C3.29 8.743 2.32591 6.02031 2.02502 3.1869C2.00211 2.93341 2.03224 2.67793 2.11348 2.43672C2.19472 2.19551 2.32529 1.97386 2.49689 1.78588C2.66848 1.59791 2.87734 1.44772 3.11016 1.34488C3.34298 1.24204 3.59466 1.18881 3.84919 1.18857H6.59919C7.04405 1.18419 7.47533 1.34172 7.81263 1.6318C8.14994 1.92189 8.37026 2.32472 8.43252 2.76523C8.54859 3.64529 8.76385 4.5094 9.07419 5.34107C9.19752 5.66916 9.22421 6.02574 9.1511 6.36854C9.07799 6.71134 8.90814 7.026 8.66169 7.27523L7.49752 8.4394C8.80244 10.7343 10.7026 12.6345 12.9975 13.9394L14.1617 12.7752C14.4109 12.5288 14.7256 12.3589 15.0684 12.2858C15.4112 12.2127 15.7678 12.2394 16.0959 12.3627C16.9275 12.6731 17.7916 12.8883 18.6717 13.0044C19.117 13.0672 19.5236 13.2915 19.8143 13.6346C20.105 13.9777 20.2595 14.4157 20.2484 14.8652Z" stroke="#6AA632" stroke-width="2" stroke-linecap="round" stroke-linejoin="round"/>
</svg>
