<svg width="22" height="22" viewBox="0 0 22 22" fill="none" xmlns="http://www.w3.org/2000/svg">
<path d="M11.069 19.6029C16.1316 19.6029 20.2357 15.4988 20.2357 10.4362C20.2357 5.37359 16.1316 1.26953 11.069 1.26953C6.0064 1.26953 1.90234 5.37359 1.90234 10.4362C1.90234 11.7002 2.15816 12.9044 2.62085 13.9999C2.87656 14.6053 3.00442 14.9081 3.02025 15.1369C3.03608 15.3657 2.96874 15.6173 2.83406 16.1206L1.90234 19.6029L5.38455 18.6712C5.8879 18.5365 6.13958 18.4691 6.36836 18.485C6.59715 18.5008 6.89987 18.6286 7.50533 18.8844C8.60084 19.347 9.80502 19.6029 11.069 19.6029Z" stroke="#6AA632" stroke-width="2" stroke-linejoin="round"/>
<path d="M7.94213 10.7817L8.74049 9.79011C9.07698 9.3722 9.4929 8.98317 9.52554 8.42672C9.5337 8.28617 9.43488 7.65517 9.23706 6.39318C9.15934 5.89722 8.69628 5.85248 8.29521 5.85248C7.77254 5.85248 7.51121 5.85248 7.2517 5.97101C6.92371 6.12083 6.58697 6.5421 6.51307 6.89503C6.4546 7.17427 6.49805 7.36669 6.58495 7.75153C6.95404 9.38604 7.8199 11.0003 9.16252 12.3429C10.5052 13.6856 12.1194 14.5515 13.7539 14.9205C14.1388 15.0074 14.3312 15.0509 14.6105 14.9924C14.9634 14.9185 15.3846 14.5818 15.5345 14.2537C15.653 13.9942 15.653 13.733 15.653 13.2103C15.653 12.8092 15.6083 12.3461 15.1123 12.2684C13.8503 12.0706 13.2193 11.9718 13.0787 11.9799C12.5223 12.0126 12.1333 12.4285 11.7154 12.765L10.7238 13.5633" stroke="#6AA632" stroke-width="2"/>
</svg>
