<svg width="50" height="50" viewBox="0 0 50 50" fill="none" xmlns="http://www.w3.org/2000/svg">
<rect width="50" height="50" rx="5" fill="white" fill-opacity="0.1"/>
<g clip-path="url(#clip0_250_2405)">
<path d="M37.4755 19.8501C37.4169 18.5217 37.2021 17.6085 36.8944 16.8172C36.577 15.9772 36.0886 15.2252 35.4487 14.6C34.8236 13.9651 34.0666 13.4718 33.2364 13.1593C32.4405 12.8516 31.532 12.6368 30.2037 12.5782C28.8654 12.5147 28.4406 12.5 25.0463 12.5C21.6521 12.5 21.2273 12.5147 19.894 12.5733C18.5656 12.6318 17.6524 12.8468 16.8613 13.1543C16.0211 13.4718 15.2691 13.9602 14.6439 14.6C14.009 15.2252 13.5159 15.9822 13.2032 16.8124C12.8955 17.6085 12.6807 18.5168 12.6221 19.8451C12.5586 21.1834 12.5439 21.6082 12.5439 25.0024C12.5439 28.3967 12.5586 28.8215 12.6172 30.1548C12.6757 31.4832 12.8907 32.3964 13.1985 33.1877C13.5159 34.0277 14.009 34.7797 14.6439 35.4049C15.2691 36.0398 16.0261 36.5331 16.8563 36.8456C17.6524 37.1533 18.5607 37.3681 19.8892 37.4267C21.2223 37.4854 21.6474 37.4999 25.0416 37.4999C28.4358 37.4999 28.8606 37.4854 30.1939 37.4267C31.5223 37.3681 32.4355 37.1533 33.2266 36.8456C34.9068 36.196 36.2351 34.8677 36.8847 33.1877C37.1922 32.3916 37.4072 31.4832 37.4658 30.1548C37.5243 28.8215 37.539 28.3967 37.539 25.0024C37.539 21.6082 37.5341 21.1834 37.4755 19.8501ZM35.2242 30.0571C35.1704 31.2781 34.9653 31.9374 34.7944 32.3769C34.3743 33.466 33.5099 34.3304 32.4208 34.7505C31.9813 34.9214 31.3172 35.1265 30.101 35.1801C28.7824 35.2389 28.3869 35.2534 25.0513 35.2534C21.7157 35.2534 21.3152 35.2389 20.0014 35.1801C18.7804 35.1265 18.1211 34.9214 17.6816 34.7505C17.1396 34.5502 16.6463 34.2328 16.2458 33.8176C15.8307 33.4123 15.5133 32.9239 15.313 32.3819C15.142 31.9424 14.937 31.2781 14.8833 30.0621C14.8246 28.7435 14.8101 28.3478 14.8101 25.0122C14.8101 21.6765 14.8246 21.2761 14.8833 19.9624C14.937 18.7415 15.142 18.0822 15.313 17.6426C15.5133 17.1005 15.8307 16.6073 16.2508 16.2067C16.656 15.7916 17.1444 15.4741 17.6866 15.274C18.1261 15.1031 18.7904 14.898 20.0063 14.8442C21.325 14.7856 21.7206 14.771 25.0561 14.771C28.3967 14.771 28.7921 14.7856 30.106 14.8442C31.3269 14.898 31.9862 15.1031 32.4258 15.274C32.9678 15.4741 33.4611 15.7916 33.8615 16.2067C34.2766 16.6121 34.5941 17.1005 34.7944 17.6426C34.9653 18.0822 35.1704 18.7463 35.2242 19.9624C35.2828 21.2811 35.2975 21.6765 35.2975 25.0122C35.2975 28.3478 35.2828 28.7385 35.2242 30.0571Z" fill="#6B7280"/>
<path d="M25.0464 18.5803C21.5009 18.5803 18.6242 21.4568 18.6242 25.0025C18.6242 28.5482 21.5009 31.4246 25.0464 31.4246C28.5921 31.4246 31.4685 28.5482 31.4685 25.0025C31.4685 21.4568 28.5921 18.5803 25.0464 18.5803ZM25.0464 29.1684C22.7463 29.1684 20.8805 27.3028 20.8805 25.0025C20.8805 22.7021 22.7463 20.8366 25.0464 20.8366C27.3467 20.8366 29.2123 22.7021 29.2123 25.0025C29.2123 27.3028 27.3467 29.1684 25.0464 29.1684Z" fill="#6B7280"/>
<path d="M33.2219 18.3264C33.2219 19.1544 32.5505 19.8257 31.7224 19.8257C30.8944 19.8257 30.2231 19.1544 30.2231 18.3264C30.2231 17.4983 30.8944 16.8271 31.7224 16.8271C32.5505 16.8271 33.2219 17.4983 33.2219 18.3264Z" fill="#6B7280"/>
</g>
<defs>
<clipPath id="clip0_250_2405">
<rect width="25" height="25" fill="white" transform="translate(12.5 12.5)"/>
</clipPath>
</defs>
</svg>
