<svg width="286" height="65" viewBox="0 0 286 65" fill="none" xmlns="http://www.w3.org/2000/svg">
<path d="M12.493 31.4043C13.2688 23.061 17.4896 17.1094 24.9933 13.461C26.6735 12.6438 28.4661 12.1024 30.3181 11.8812C31.8191 11.702 33.3229 11.5431 34.8621 11.6804C36.0996 11.7908 37.3202 11.9099 38.5552 12.214C38.1926 13.1395 37.7105 13.9775 37.1032 14.7463C36.6394 15.3329 36.1689 15.9154 35.7246 16.5169C34.7974 17.7727 34.3867 19.1924 34.4169 20.7494C34.4261 21.2285 34.3945 21.7085 34.3817 22.1881C34.2717 22.7291 34.412 23.2821 34.3033 23.8227C34.2912 24.0874 34.2796 24.3521 34.2676 24.6172C34.1547 25.0412 34.2987 25.4813 34.1875 25.9053C34.1282 26.8018 33.7183 27.5967 33.4204 28.4389C33.398 28.2808 33.376 28.1232 33.3536 27.9651C33.2545 27.1117 33.3379 26.255 33.3072 25.4004C33.2989 25.1743 33.3549 24.9432 33.2611 24.7229C33.24 24.3135 33.1163 23.9252 32.9355 23.568C32.2182 22.1495 31.4959 20.7336 30.7441 19.333C30.2799 18.468 29.5087 17.8764 28.7569 17.2774C28.6574 17.1981 28.5441 17.0699 28.4039 17.1766C28.2595 17.2865 28.3736 17.4267 28.4155 17.5433C28.4997 17.7773 28.5819 18.0167 28.703 18.2324C29.2174 19.1497 29.2071 20.176 29.3407 21.1738C29.636 23.3792 30.1036 25.5158 31.7382 27.191C32.0319 27.4922 32.3186 27.81 32.5517 28.1584C33.0114 28.8463 33.225 29.554 32.9736 30.429C32.5318 31.9673 32.0991 33.516 31.9394 35.2875C31.8265 34.8365 31.7473 34.5453 31.6809 34.2511C31.2387 32.2926 30.3119 30.607 28.8947 29.1786C27.8272 28.1029 26.6756 27.1093 25.7077 25.9352C25.6235 25.8327 25.5297 25.7074 25.3741 25.7867C25.2223 25.8638 25.275 26.0182 25.2837 26.1464C25.3414 27.0147 25.6334 27.8241 25.9359 28.626C26.6461 30.5095 27.753 32.1233 29.2784 33.4451C29.9771 34.0503 30.6006 34.7179 31.1134 35.497C31.7149 36.4113 31.9095 37.4087 32.0049 38.4819C32.1086 39.6506 32.0983 40.8305 32.3132 41.9913C32.4057 42.4904 32.2592 43.0139 32.3546 43.5416C32.0833 42.8824 31.7884 42.2315 31.5452 41.5619C30.8736 39.7124 29.7829 38.1866 28.2388 36.9498C26.7071 35.7231 25.1543 34.5415 23.3861 33.6736C23.2285 33.5965 23.055 33.3949 22.8696 33.5625C22.6788 33.7346 22.8679 33.9238 22.9393 34.0831C23.7686 35.933 24.9414 37.5269 26.5167 38.8117C27.2004 39.3697 27.8895 39.9223 28.5943 40.4534C30.0762 41.5694 31.3208 42.9143 32.4542 44.3722C32.5343 44.4751 32.5417 44.5813 32.5426 44.6929C32.5505 45.7976 32.6915 46.8929 32.7898 47.9906C32.8438 48.5918 33.0471 49.1755 33.0213 49.7965C32.9662 49.777 32.9168 49.7754 32.9052 49.7534C31.5087 47.1306 29.3614 45.2575 26.8842 43.7105C26.2433 43.3105 25.5558 43.0288 24.8261 42.843C24.3046 42.7102 23.7906 42.5605 23.3347 42.2576C23.2289 42.1871 23.1148 42.0713 22.9766 42.1937C22.8347 42.3194 22.9393 42.4443 23.0073 42.5522C24.3631 44.7028 25.8823 46.6797 28.3271 47.7156C29.9592 48.4072 31.4739 49.2692 32.7886 50.5064C33.1794 50.8743 33.3665 51.21 33.4657 51.6701C33.6399 52.4749 33.9141 53.2503 34.1718 54.0348C30.6624 54.4745 24.0905 53.0043 19.3424 48.5519C15.2265 44.6925 12.89 39.9676 12.4926 34.3146C12.4341 33.3447 12.4316 32.3747 12.4938 31.4048L12.493 31.4043Z" fill="#789E00"/>
<path d="M33.0582 35.3108C33.0719 34.6192 33.2018 33.9417 33.3677 33.2763C33.5681 32.471 34.2281 32.0308 34.8712 31.6255C35.418 31.2812 36.0195 31.0215 36.602 30.7348C38.6838 29.7101 40.0113 28.0905 40.5606 25.822C40.8199 24.7508 40.9825 23.6394 41.6285 22.6968C41.6924 22.6035 41.7471 22.4678 41.6372 22.3848C41.4708 22.2595 41.3563 22.4143 41.2481 22.5109C39.8222 23.7825 38.4087 25.0541 37.1961 26.555C36.039 27.9872 34.8708 29.3919 34.0858 31.0721C34.0547 31.1393 34.0016 31.1986 33.9489 31.2517C33.9282 31.2729 33.8801 31.2671 33.7635 31.2887C34.0908 30.1714 34.4016 29.0882 34.7268 28.0091C34.9031 27.4242 35.1284 26.8537 35.2902 26.2651C35.5711 25.2445 36.0776 24.3538 36.8177 23.6112C37.718 22.708 38.2071 21.6173 38.4344 20.3852C38.8949 17.8894 39.4492 15.4064 39.5131 12.8554C39.526 12.3443 39.7857 12.4837 40.0744 12.5679C45.2685 14.0776 49.3288 17.1152 52.2424 21.6625C54.164 24.662 55.2485 27.9531 55.4709 31.5177C55.5331 32.5196 55.5393 33.5219 55.4663 34.5238C55.0904 39.5988 53.1323 43.9823 49.618 47.6455C45.9659 51.4527 41.4655 53.5507 36.2286 54.1029C35.893 54.1381 35.7453 54.0091 35.6179 53.7361C35.006 52.4256 34.6575 51.0404 34.4571 49.6174C34.3572 48.905 34.2642 48.1877 34.1692 47.4767C34.0788 46.7992 34.3924 46.4777 34.8567 46.2827C37.2932 45.2592 38.7203 43.3882 39.526 40.9421C40.0383 39.3856 40.4748 37.7858 41.5812 36.5006C41.6567 36.4131 41.7252 36.2911 41.6397 36.1907C41.5177 36.0471 41.3978 36.182 41.2866 36.2388C39.2841 37.2685 37.7943 38.8189 36.736 40.7866C36.0121 42.1328 35.3806 43.5238 34.9235 44.9883C34.7695 45.4816 34.5683 45.9525 34.0726 46.3615C33.9639 45.5695 33.8618 44.8485 33.7668 44.1266C33.6224 43.0297 33.4897 41.9312 33.3374 40.8351C33.2972 40.5447 33.3544 40.3273 33.5785 40.124C34.0788 39.6689 34.6293 39.274 35.2429 39.0167C37.033 38.2663 38.0889 36.8806 38.7141 35.117C39.0522 34.1632 39.5762 33.3373 40.2217 32.5693C40.7527 31.9375 41.1921 31.2438 41.4684 30.4577C41.5231 30.3017 41.6567 30.1287 41.4522 29.9993C41.2717 29.8848 41.175 30.0677 41.0767 30.1677C40.7776 30.4718 40.4254 30.6966 40.0553 30.8995C37.7669 32.1536 36.1544 34.0006 35.2446 36.445C34.7944 37.6547 34.2136 38.779 33.247 39.856C33.1785 38.7662 33.1175 37.7925 33.0566 36.8188C32.9923 36.3164 32.9898 35.814 33.0578 35.3116L33.0582 35.3108Z" fill="#A2C939"/>
<path d="M32.8856 0H33.8568C32.6591 0.224027 31.4568 0.41528 30.2749 0.70444C20.3634 3.13057 12.8053 8.59516 8.24682 17.8749C6.4853 21.4609 5.5336 25.2781 5.327 29.2712C4.91379 37.2602 7.32084 44.3432 12.2312 50.6101C12.4623 50.9047 12.4838 51.0736 12.2254 51.3656C11.2189 52.5032 10.2436 53.6685 9.25577 54.8231C9.23793 54.8438 9.20889 54.8555 9.16491 54.8841C7.77221 53.4586 6.52679 51.9112 5.42615 50.2467C2.63992 46.0346 0.890852 41.4267 0.279756 36.4143C-0.773585 27.771 1.1265 19.8475 6.33844 12.8272C10.5854 7.10621 16.2931 3.46204 23.1027 1.49434C25.9454 0.67291 28.8507 0.212411 31.8049 0.0622297C32.1613 -0.0207432 32.5284 0.087122 32.8844 0.00041527L32.8856 0Z" fill="#789E00"/>
<path d="M37.1355 1.56445C44.5276 1.92953 50.9733 4.6025 56.4773 9.53649C59.6979 12.4235 62.139 15.8818 63.8764 19.8401C64.1104 20.3736 64.1125 20.3707 63.5752 20.5366C62.351 20.9137 61.123 21.2788 59.907 21.68C59.5843 21.7866 59.4536 21.7115 59.3021 21.4269C57.2913 17.6512 54.6229 14.4207 51.2285 11.8087C47.1827 8.69514 42.637 6.70545 37.5641 6.10639C26.6411 4.81699 17.8294 8.78061 10.8273 17.087C9.76192 18.3511 8.83802 19.7202 7.90042 21.0934C8.19083 20.4868 8.46961 19.8749 8.7733 19.2754C10.7294 15.4097 13.2248 11.9423 16.4545 9.03616C20.6442 5.26629 25.5081 2.8638 31.0806 1.92911C32.2302 1.7362 33.3856 1.60179 34.5517 1.56735C35.413 1.51591 36.2743 1.52255 37.1359 1.56445H37.1355Z" fill="#A2C939"/>
<path d="M35.4532 62.8697C39.8682 62.6697 44.0272 61.5235 47.9062 59.4143C54.454 55.8535 59.0466 50.5694 61.6988 43.6038C62.3572 41.8747 62.8301 40.1015 62.9098 38.2388C62.9197 38.0011 62.8803 37.8683 62.6484 37.7604C60.6492 36.8316 59.2262 35.2903 58.1019 33.4384C58.0534 33.3587 57.9243 33.267 58.0405 33.1729C58.2542 33.0003 58.0861 32.8555 58.026 32.7091C57.2568 30.8372 56.9486 28.9106 57.4103 26.9159C57.748 25.4576 58.5524 24.3437 59.9746 23.7476C60.0721 23.7069 60.1501 23.6513 60.2273 23.5791C60.7492 23.0921 61.5129 23.0303 62.0892 23.426C62.3456 23.6019 62.5215 23.8326 62.4937 24.1624C62.4642 24.5101 62.2447 24.7242 61.9411 24.8478C61.5722 24.998 61.1839 25.0104 60.8193 24.8532C60.5562 24.7395 60.3447 24.7856 60.1119 24.9142C59.0129 25.5215 58.5641 26.5396 58.3882 27.7029C58.16 29.2122 58.4363 30.6621 58.9744 32.078C59.1154 32.4485 59.4925 32.5535 59.6896 32.8804C60.5811 34.3602 61.7593 35.5538 63.3454 36.3109C63.6935 36.4773 64.0009 36.4847 64.3576 36.3599C66.0204 35.7761 67.4372 34.8166 68.8423 33.7591C69.7044 33.1098 70.0492 32.2751 70.4421 31.413C70.8544 30.509 71.049 29.5333 71.0208 28.5318C70.9926 27.5257 70.7138 26.6147 69.9164 25.9268C69.6949 25.7356 69.4779 25.6227 69.1589 25.6929C68.7365 25.7862 68.335 25.6617 68.001 25.3867C67.5318 25 67.5878 24.408 68.108 24.1014C68.7129 23.7455 69.6036 23.9334 70.0035 24.5146C70.0894 24.6395 70.1857 24.7383 70.308 24.8233C71.4269 25.5995 71.987 26.7002 72.1011 28.0294C72.2878 30.1991 71.5618 32.1137 70.4122 33.9076C70.2686 34.1316 69.8836 34.2943 70.1168 34.6855C70.133 34.7128 69.9724 34.8522 69.887 34.9323C68.4528 36.2703 66.7933 37.2319 64.9409 37.86C64.6651 37.9534 64.5448 38.0791 64.512 38.3682C63.8482 44.2215 61.2901 49.2306 57.5269 53.6502C53.543 58.329 48.5492 61.5065 42.6453 63.2282C38.7937 64.3516 34.8682 64.6972 30.8735 64.296C26.0229 63.8085 21.5416 62.2599 17.4257 59.6541C17.1739 59.4948 17.0473 59.5968 16.8611 59.7296C15.6202 60.6158 14.293 60.751 12.9485 60.0308C11.6221 59.3205 10.9837 58.1544 11.0198 56.6505C11.0687 54.6156 12.8506 53.0772 14.9871 53.1967C16.9171 53.3046 18.4583 55.1151 18.2957 57.0736C18.2712 57.369 18.2537 57.6673 18.138 57.939C18.0422 58.1647 18.1027 58.283 18.299 58.4049C21.4851 60.3872 24.9123 61.7467 28.6075 62.4217C29.8994 62.6577 31.1984 62.8324 32.5131 62.8701C33.493 62.9224 34.4733 62.9232 35.4532 62.8697Z" fill="#A2C939"/>
<path d="M14.6635 54.4209C16.0077 54.4192 17.0826 55.485 17.0851 56.8226C17.088 58.1422 15.999 59.2279 14.6673 59.2333C13.3389 59.2387 12.2507 58.1568 12.2465 56.8259C12.2424 55.4958 13.321 54.423 14.6635 54.4213V54.4209Z" fill="#FFFFFC"/>
<path d="M14.6772 55.5861C15.3904 55.5919 15.9131 56.1375 15.8986 56.8606C15.8849 57.5468 15.3343 58.0803 14.6502 58.0707C13.9553 58.0612 13.3928 57.4787 13.4123 56.7892C13.4314 56.1146 13.9931 55.5803 14.6772 55.5861Z" fill="#A2C939"/>
<path d="M79.8995 52.2608V38.1414H83.8566V52.2608H79.8995Z" fill="#789E00"/>
<path d="M87.3152 38.1428H91.6617L96.3321 45.3652V38.1428H98.4507V52.2622H96.1588L89.4124 41.948V52.2622H87.3152V38.1428Z" fill="#789E00"/>
<path d="M104.136 40.0454H100.373V38.1428H111.833V40.0454H108.092V52.2622H104.134V40.0454H104.136Z" fill="#789E00"/>
<path d="M113.757 38.1427H122.6V40.0453H117.714V44.1531H122.34V46.0557H117.714V50.3582H122.86V52.2608H113.758V38.1414L113.757 38.1427Z" fill="#789E00"/>
<path d="M132.481 52.6077C130.492 52.6077 128.805 52.0451 127.487 50.9638C125.714 49.5145 124.848 47.6119 124.848 45.1693C124.848 43.0508 125.778 40.9962 127.356 39.6336C128.719 38.4656 130.469 37.839 132.524 37.839C135.118 37.839 137 38.855 138.405 41.0175L136.61 42.3361C135.789 40.5842 134.578 39.5896 132.913 39.5896C130.535 39.5896 129.087 41.5788 129.087 45.2334C129.087 48.5412 130.773 50.7251 133.152 50.7251C134.039 50.7251 134.817 50.4651 135.573 49.9038V45.9693H139.422V50.0345C137.476 51.7211 135.054 52.6077 132.481 52.6077Z" fill="#789E00"/>
<path d="M141.692 38.1427H147.854C151.486 38.1427 153.54 39.8506 153.54 42.4665C153.54 44.4131 152.438 45.6664 150.254 46.185L153.67 52.2608H149.238L145.799 45.0824H146.686C148.633 45.0824 149.583 44.2611 149.583 42.5532C149.583 40.7159 148.589 39.8933 146.534 39.8933H145.539V52.2608H141.69V38.1414L141.692 38.1427Z" fill="#789E00"/>
<path d="M159.225 38.1428H163.052L168.22 52.2622H164.025L162.533 48.0891H157.798L156.392 52.2622H154.382L159.225 38.1428ZM161.885 46.2931L160.069 41.2334L158.404 46.2931H161.885Z" fill="#789E00"/>
<path d="M171.312 40.0454H167.549V38.1428H179.009V40.0454H175.267V52.2622H171.31V40.0454H171.312Z" fill="#789E00"/>
<path d="M180.933 38.1427H189.776V40.0453H184.89V44.1531H189.516V46.0557H184.89V50.3582H190.036V52.2608H180.934V38.1414L180.933 38.1427Z" fill="#789E00"/>
<path d="M192.976 38.1427H197.755C200.046 38.1427 201.82 38.3587 203.441 39.44C205.452 40.7799 206.641 42.9425 206.641 45.2344C206.641 47.5263 205.733 49.3862 204.112 50.7475C202.966 51.6995 201.322 52.2608 199.441 52.2608H192.976V38.1414V38.1427ZM196.932 50.3582H198.295C200.868 50.3582 202.381 48.5423 202.381 45.2117C202.381 41.8812 200.868 40.0439 198.295 40.0439H196.932V50.3582Z" fill="#789E00"/>
<path d="M222.359 52.6075C220.435 52.6075 218.77 52.0675 217.451 50.9862C215.699 49.5596 214.812 47.657 214.812 45.3424C214.812 40.996 217.948 37.8401 222.488 37.8401C225.083 37.8401 226.964 38.856 228.369 41.0186L226.575 42.3372C225.753 40.5853 224.543 39.5907 222.877 39.5907C220.499 39.5907 219.051 41.5799 219.051 45.2345C219.051 48.5863 220.759 50.7476 223.224 50.7476C224.781 50.7476 226.1 49.7316 227.073 47.721L228.76 48.8236C227.592 51.2675 225.344 52.6075 222.36 52.6075H222.359Z" fill="#789E00"/>
<path d="M230.985 38.1428H234.942V50.3596H240.066V52.2622H230.985V38.1428Z" fill="#789E00"/>
<path d="M242.335 52.2608V38.1414H246.292V52.2608H242.335Z" fill="#789E00"/>
<path d="M249.751 38.1428H254.097L258.768 45.3652V38.1428H260.887V52.2622H258.595L251.848 41.948V52.2622H249.751V38.1428Z" fill="#789E00"/>
<path d="M264.366 52.2608V38.1414H268.324V52.2608H264.366Z" fill="#789E00"/>
<path d="M278.378 52.6075C276.454 52.6075 274.789 52.0675 273.47 50.9862C271.718 49.5596 270.831 47.657 270.831 45.3424C270.831 40.996 273.966 37.8401 278.507 37.8401C281.102 37.8401 282.983 38.856 284.388 41.0186L282.594 42.3372C281.772 40.5853 280.562 39.5907 278.896 39.5907C276.518 39.5907 275.07 41.5799 275.07 45.2345C275.07 48.5863 276.778 50.7476 279.243 50.7476C280.8 50.7476 282.119 49.7316 283.092 47.721L284.779 48.8236C283.611 51.2675 281.363 52.6075 278.379 52.6075H278.378Z" fill="#789E00"/>
<path d="M84.7847 33.0832C84.3114 33.0832 83.8341 33.0646 83.3541 33.0272C82.8728 32.9899 82.4008 32.9379 81.9342 32.8726C81.4689 32.8072 81.0182 32.7272 80.5836 32.6339C80.1489 32.5406 79.7476 32.4366 79.3823 32.3246V28.4714C79.8703 28.5274 80.4129 28.5741 81.0076 28.6127C81.6035 28.6501 82.2088 28.6781 82.8275 28.6967C83.4461 28.7154 84.0288 28.7247 84.5794 28.7247C85.1301 28.7247 85.5674 28.6727 85.942 28.5701C86.3153 28.4674 86.602 28.2888 86.8007 28.0354C86.9993 27.7821 87.098 27.4315 87.098 26.9808V26.4462C87.098 25.9395 86.9647 25.5555 86.6967 25.2929C86.43 25.0302 86.09 24.8996 85.678 24.8996H84.3501C82.6408 24.8996 81.3422 24.4409 80.4583 23.521C79.573 22.6023 79.1303 21.0557 79.1303 18.8812V17.8972C79.1303 15.8533 79.6183 14.34 80.5956 13.3547C81.5715 12.3708 82.9768 11.8788 84.8087 11.8788C85.4807 11.8788 86.1287 11.9214 86.7553 12.0054C87.3806 12.0894 87.9766 12.1881 88.5419 12.3001C89.1059 12.4121 89.6032 12.5348 90.0299 12.6654V16.4906C89.3272 16.4346 88.5419 16.3786 87.6713 16.3213C86.8007 16.2653 86.0074 16.2373 85.29 16.2373C84.8167 16.2373 84.3968 16.2893 84.0301 16.3919C83.6635 16.4946 83.3808 16.6826 83.1835 16.9546C82.9848 17.2266 82.8862 17.6252 82.8862 18.1505V18.5438C82.8862 19.1438 83.0275 19.5838 83.3101 19.8651C83.5928 20.1464 84.0234 20.2864 84.6034 20.2864H86.1833C87.2366 20.2864 88.1073 20.5251 88.7939 21.0037C89.4805 21.4824 89.9952 22.1383 90.3392 22.973C90.6832 23.8076 90.8552 24.7489 90.8552 25.7995V26.8395C90.8552 28.5647 90.6072 29.8767 90.1112 30.7767C89.6152 31.6766 88.9126 32.2859 88.0046 32.6046C87.0966 32.9232 86.0247 33.0832 84.7874 33.0832H84.7847Z" fill="#789E00"/>
<path d="M99.8508 33.0831C98.6748 33.0831 97.6416 32.9418 96.7483 32.6618C95.855 32.3805 95.107 31.8645 94.5044 31.1152C93.9004 30.3659 93.4511 29.2966 93.1537 27.9087C92.8564 26.5221 92.7071 24.7128 92.7071 22.4809C92.7071 20.249 92.8591 18.4638 93.1644 17.0665C93.4697 15.6705 93.9204 14.5959 94.515 13.8466C95.111 13.0973 95.855 12.5773 96.7469 12.2853C97.6402 11.9947 98.6735 11.8494 99.8495 11.8494C101.025 11.8494 102.083 11.9947 102.975 12.2853C103.868 12.576 104.612 13.096 105.207 13.8466C105.803 14.5972 106.248 15.6705 106.547 17.0665C106.844 18.4638 106.993 20.2677 106.993 22.4809C106.993 24.6942 106.844 26.5221 106.547 27.9087C106.249 29.2966 105.799 30.3646 105.196 31.1152C104.593 31.8659 103.848 32.3805 102.964 32.6618C102.079 32.9431 101.04 33.0831 99.8495 33.0831H99.8508ZM99.8508 28.7233C100.476 28.7233 100.996 28.6353 101.408 28.4567C101.82 28.278 102.144 27.9687 102.381 27.5287C102.617 27.0887 102.785 26.4594 102.885 25.6448C102.984 24.8288 103.035 23.7742 103.035 22.4809C103.035 21.1876 102.985 20.0717 102.885 19.2464C102.787 18.4211 102.619 17.7891 102.381 17.3478C102.144 16.9078 101.82 16.6078 101.408 16.4478C100.996 16.2892 100.477 16.2092 99.8508 16.2092C99.2242 16.2092 98.7295 16.2892 98.3162 16.4478C97.9042 16.6078 97.5802 16.9078 97.3429 17.3478C97.1056 17.7891 96.9349 18.4211 96.8283 19.2464C96.7216 20.0717 96.6683 21.149 96.6683 22.4809C96.6683 23.8129 96.7176 24.8288 96.8176 25.6448C96.9163 26.4607 97.0842 27.0887 97.3216 27.5287C97.5589 27.97 97.8829 28.2793 98.2949 28.4567C98.7068 28.6353 99.2255 28.7233 99.8521 28.7233H99.8508Z" fill="#789E00"/>
<path d="M108.345 32.9138L110.337 12.0466H114.091L117.778 27.318L121.442 12.0466H125.151L127.166 32.9138H123.364L121.967 18.5984L122.563 18.6264L119.587 32.9138H115.878L112.878 18.6264L113.519 18.5984L112.169 32.9138H108.345Z" fill="#789E00"/>
<path d="M128.287 32.9138L133.461 12.0466H138.406L143.581 32.9138H139.482L138.613 29.1166H133.209L132.361 32.9138H128.286H128.287ZM134.125 24.7581H137.697L135.912 16.2091L134.125 24.7581Z" fill="#789E00"/>
<path d="M149.421 32.9137C148.459 32.9137 147.665 32.7364 147.039 32.3791C146.414 32.0231 145.947 31.4605 145.644 30.6912C145.338 29.9232 145.186 28.9286 145.186 27.71V12.0453H149.147V26.894C149.147 27.2873 149.197 27.6073 149.297 27.85C149.395 28.094 149.549 28.2713 149.754 28.3846C149.959 28.4966 150.201 28.5539 150.475 28.5539H155.627V32.9124H149.422L149.421 32.9137Z" fill="#789E00"/>
<path d="M157.456 32.9138V12.0466H161.417V32.9138H157.456Z" fill="#789E00"/>
<path d="M172.797 32.9138L168.813 12.0466H172.912L175.316 25.686L178.154 12.0466H181.726L184.542 25.686L186.946 12.0466H191.044L187.06 32.9138H183.077L179.939 19.2463L176.78 32.9138H172.796H172.797Z" fill="#A2C939"/>
<path d="M196.38 33.0831C196.013 33.0831 195.583 33.0364 195.085 32.9417C194.589 32.8484 194.112 32.6471 193.655 32.3378C193.196 32.0284 192.815 31.5498 192.51 30.9032C192.204 30.2565 192.052 29.3806 192.052 28.2739V17.0531C192.052 16.0785 192.178 15.2625 192.43 14.6065C192.682 13.9505 193.002 13.4399 193.391 13.0732C193.78 12.7079 194.219 12.4453 194.707 12.2853C195.195 12.1266 195.668 12.0466 196.127 12.0466C197.348 12.0466 198.408 12.0706 199.309 12.1173C200.209 12.164 201.004 12.2159 201.69 12.2719C202.377 12.3279 202.996 12.3839 203.545 12.4413V16.5478H197.317C196.905 16.5478 196.584 16.6651 196.356 16.8998C196.127 17.1344 196.012 17.5037 196.012 18.0104V20.317L202.424 20.5983V24.4234L196.012 24.6768V26.87C196.012 27.282 196.065 27.606 196.172 27.8406C196.279 28.0753 196.424 28.2486 196.607 28.3606C196.789 28.4726 196.988 28.5299 197.203 28.5299H203.545V32.6084C202.873 32.7031 202.125 32.7871 201.301 32.8618C200.477 32.9364 199.641 32.9884 198.795 33.0164C197.947 33.0444 197.143 33.0684 196.379 33.0871L196.38 33.0831Z" fill="#A2C939"/>
<path d="M210.049 32.9137C209.087 32.9137 208.293 32.7364 207.668 32.3791C207.042 32.0231 206.576 31.4605 206.272 30.6912C205.966 29.9232 205.814 28.9286 205.814 27.71V12.0453H209.775V26.894C209.775 27.2873 209.825 27.6073 209.925 27.85C210.023 28.094 210.177 28.2713 210.382 28.3846C210.587 28.4966 210.829 28.5539 211.103 28.5539H216.255V32.9124H210.05L210.049 32.9137Z" fill="#A2C939"/>
<path d="M222.32 32.9137C221.359 32.9137 220.564 32.7364 219.939 32.3791C219.314 32.0231 218.847 31.4605 218.543 30.6912C218.238 29.9232 218.086 28.9286 218.086 27.71V12.0453H222.047V26.894C222.047 27.2873 222.096 27.6073 222.196 27.85C222.295 28.094 222.448 28.2713 222.654 28.3846C222.859 28.4966 223.1 28.5539 223.375 28.5539H228.527V32.9124H222.322L222.32 32.9137Z" fill="#A2C939"/>
<path d="M230.425 32.9138V12.0466H233.562L240.065 24.6741V12.0466H244.026V32.9138H240.866L234.364 20.3143V32.9138H230.425Z" fill="#A2C939"/>
<path d="M250.987 33.0831C250.62 33.0831 250.19 33.0364 249.692 32.9417C249.196 32.8484 248.719 32.6471 248.262 32.3378C247.803 32.0284 247.422 31.5498 247.117 30.9032C246.811 30.2565 246.659 29.3806 246.659 28.2739V17.0531C246.659 16.0785 246.785 15.2625 247.037 14.6065C247.289 13.9505 247.609 13.4399 247.998 13.0732C248.387 12.7079 248.826 12.4453 249.314 12.2853C249.802 12.1266 250.275 12.0466 250.734 12.0466C251.955 12.0466 253.015 12.0706 253.916 12.1173C254.816 12.164 255.611 12.2159 256.298 12.2719C256.984 12.3279 257.603 12.3839 258.152 12.4413V16.5478H251.924C251.512 16.5478 251.191 16.6651 250.963 16.8998C250.734 17.1344 250.619 17.5037 250.619 18.0104V20.317L257.031 20.5983V24.4234L250.619 24.6768V26.87C250.619 27.282 250.672 27.606 250.779 27.8406C250.886 28.0753 251.031 28.2486 251.214 28.3606C251.396 28.4726 251.595 28.5299 251.81 28.5299H258.152V32.6084C257.48 32.7031 256.732 32.7871 255.908 32.8618C255.084 32.9364 254.248 32.9884 253.402 33.0164C252.554 33.0444 251.75 33.0684 250.986 33.0871L250.987 33.0831Z" fill="#A2C939"/>
<path d="M265.662 33.0832C265.189 33.0832 264.712 33.0646 264.232 33.0272C263.75 32.9899 263.279 32.9379 262.812 32.8726C262.347 32.8072 261.896 32.7272 261.461 32.6339C261.027 32.5406 260.625 32.4366 260.26 32.3246V28.4714C260.748 28.5274 261.291 28.5741 261.885 28.6127C262.481 28.6501 263.087 28.6781 263.705 28.6967C264.324 28.7154 264.906 28.7247 265.457 28.7247C266.008 28.7247 266.445 28.6727 266.82 28.5701C267.193 28.4674 267.48 28.2888 267.678 28.0354C267.877 27.7821 267.976 27.4315 267.976 26.9808V26.4462C267.976 25.9395 267.842 25.5555 267.574 25.2929C267.308 25.0302 266.968 24.8996 266.556 24.8996H265.228C263.519 24.8996 262.22 24.4409 261.336 23.521C260.451 22.6023 260.008 21.0557 260.008 18.8812V17.8972C260.008 15.8533 260.496 14.34 261.473 13.3547C262.449 12.3708 263.854 11.8788 265.686 11.8788C266.358 11.8788 267.006 11.9214 267.633 12.0054C268.258 12.0894 268.854 12.1881 269.42 12.3001C269.984 12.4121 270.481 12.5348 270.908 12.6654V16.4906C270.205 16.4346 269.42 16.3786 268.549 16.3213C267.678 16.2653 266.885 16.2373 266.168 16.2373C265.694 16.2373 265.274 16.2893 264.908 16.3919C264.541 16.4946 264.258 16.6826 264.061 16.9546C263.862 17.2266 263.764 17.6252 263.764 18.1505V18.5438C263.764 19.1438 263.905 19.5838 264.188 19.8651C264.47 20.1464 264.901 20.2864 265.481 20.2864H267.061C268.114 20.2864 268.985 20.5251 269.672 21.0037C270.358 21.4824 270.873 22.1383 271.217 22.973C271.561 23.8076 271.733 24.7489 271.733 25.7995V26.8395C271.733 28.5647 271.485 29.8767 270.989 30.7767C270.493 31.6766 269.79 32.2859 268.882 32.6046C267.974 32.9232 266.902 33.0832 265.665 33.0832H265.662Z" fill="#A2C939"/>
<path d="M279.263 33.0832C278.79 33.0832 278.313 33.0646 277.833 33.0272C277.351 32.9899 276.879 32.9379 276.413 32.8726C275.947 32.8072 275.497 32.7272 275.062 32.6339C274.627 32.5406 274.226 32.4366 273.861 32.3246V28.4714C274.349 28.5274 274.891 28.5741 275.486 28.6127C276.082 28.6501 276.687 28.6781 277.306 28.6967C277.925 28.7154 278.507 28.7247 279.058 28.7247C279.609 28.7247 280.046 28.6727 280.42 28.5701C280.794 28.4674 281.08 28.2888 281.279 28.0354C281.478 27.7821 281.576 27.4315 281.576 26.9808V26.4462C281.576 25.9395 281.443 25.5555 281.175 25.2929C280.908 25.0302 280.568 24.8996 280.156 24.8996H278.829C277.119 24.8996 275.821 24.4409 274.937 23.521C274.051 22.6023 273.609 21.0557 273.609 18.8812V17.8972C273.609 15.8533 274.097 14.34 275.074 13.3547C276.05 12.3708 277.455 11.8788 279.287 11.8788C279.959 11.8788 280.607 11.9214 281.234 12.0054C281.859 12.0894 282.455 12.1881 283.02 12.3001C283.584 12.4121 284.082 12.5348 284.508 12.6654V16.4906C283.806 16.4346 283.02 16.3786 282.15 16.3213C281.279 16.2653 280.486 16.2373 279.768 16.2373C279.295 16.2373 278.875 16.2893 278.509 16.3919C278.142 16.4946 277.859 16.6826 277.662 16.9546C277.463 17.2266 277.365 17.6252 277.365 18.1505V18.5438C277.365 19.1438 277.506 19.5838 277.789 19.8651C278.071 20.1464 278.502 20.2864 279.082 20.2864H280.662C281.715 20.2864 282.586 20.5251 283.272 21.0037C283.959 21.4824 284.474 22.1383 284.818 22.973C285.162 23.8076 285.334 24.7489 285.334 25.7995V26.8395C285.334 28.5647 285.086 29.8767 284.59 30.7767C284.094 31.6766 283.391 32.2859 282.483 32.6046C281.575 32.9232 280.503 33.0832 279.266 33.0832H279.263Z" fill="#A2C939"/>
</svg>
