<?xml version="1.0" encoding="UTF-8"?>
<svg version="1.1" xmlns="http://www.w3.org/2000/svg" width="286" height="80">
<path d="M0 0 C-0.33 0.99 -0.66 1.98 -1 3 C-1.99 3 -2.98 3 -4 3 C-3.505 3.99 -3.505 3.99 -3 5 C-0.36 5 2.28 5 5 5 C5 4.34 5 3.68 5 3 C4.01 2.67 3.02 2.34 2 2 C4.475 2.495 4.475 2.495 7 3 C6.25 4.9375 6.25 4.9375 5 7 C4.401875 7.144375 3.80375 7.28875 3.1875 7.4375 C0.73383755 7.85712982 0.73383755 7.85712982 -1.1875 10.375 C-4.80450726 13.75087344 -8.29458276 14.7542008 -13 16 C-13.58523437 16.18691406 -14.17046875 16.37382813 -14.7734375 16.56640625 C-18.18653339 17.23106177 -21.59864353 17.19054414 -25.0625 17.1875 C-25.8145874 17.18814453 -26.5666748 17.18878906 -27.34155273 17.18945312 C-33.38169618 17.13262295 -39.11937029 16.42252814 -45 15 C-45 14.34 -45 13.68 -45 13 C-45.928125 12.896875 -46.85625 12.79375 -47.8125 12.6875 C-51 12 -51 12 -52.875 10.875 C-54.72977648 7.78370587 -54.48491678 5.51564662 -54 2 C-50.4188241 -3.08295933 -45.85835575 -4.71792823 -40 -6 C-27.23659252 -8.02478986 -10.55373396 -8.54804696 0 0 Z M-29 -4 C-29 -3.67 -29 -3.34 -29 -3 C-27.90300781 -2.81824219 -26.80601562 -2.63648438 -25.67578125 -2.44921875 C-24.22126033 -2.19585059 -22.7668383 -1.94191427 -21.3125 -1.6875 C-20.2306543 -1.51057617 -20.2306543 -1.51057617 -19.12695312 -1.33007812 C-14.75397025 -0.55132775 -11.81956367 0.65320502 -8 3 C-7.01 2.67 -6.02 2.34 -5 2 C-8.38234487 -2.13397706 -12.72776307 -2.86378069 -17.8671875 -3.4140625 C-19.20266553 -3.49262003 -20.53865814 -3.56284456 -21.875 -3.625 C-22.56335938 -3.66367187 -23.25171875 -3.70234375 -23.9609375 -3.7421875 C-25.64023246 -3.83548166 -27.32007767 -3.91878238 -29 -4 Z M-49 2 C-49.3405626 5.06506337 -49.34245558 6.52912358 -47.5 9.0625 C-40.46059679 14.51803749 -34.44910865 15.63859857 -25.625 15.5 C-24.15933594 15.52320313 -24.15933594 15.52320313 -22.6640625 15.546875 C-16.00052167 15.51143063 -9.73491884 14.62563753 -4 11 C-2.70525434 8.96202424 -2.70525434 8.96202424 -2 7 C-2.99 6.67 -3.98 6.34 -5 6 C-5.66 5.34 -6.32 4.68 -7 4 C-7.2784375 5.1446875 -7.2784375 5.1446875 -7.5625 6.3125 C-9.22434385 9.41942545 -10.68929019 10.12041129 -13.90258789 11.39575195 C-17.72285515 12.49634111 -21.48715978 12.47201449 -25.4375 12.4375 C-26.24509766 12.45748047 -27.05269531 12.47746094 -27.88476562 12.49804688 C-33.9336878 12.49317264 -37.77399033 11.03000561 -43 8 C-43.25 5.6875 -43.25 5.6875 -43 3 C-40.12910908 0.28860302 -37.59498575 -0.52980507 -33.75 -1.1875 C-32.85796875 -1.34605469 -31.9659375 -1.50460938 -31.046875 -1.66796875 C-30.37140625 -1.77753906 -29.6959375 -1.88710938 -29 -2 C-29 -2.33 -29 -2.66 -29 -3 C-36.65133742 -3.40989308 -42.2897071 -1.63474199 -49 2 Z " fill="#82A118" transform="translate(164,26)"/>
<path d="M0 0 C2.8125 -0.25 2.8125 -0.25 6 0 C8.04040776 2.04040776 9 3.08325244 9 6 C9.66 6 10.32 6 11 6 C11.66 4.02 12.32 2.04 13 0 C14.98 0 16.96 0 19 0 C19.99 2.97 20.98 5.94 22 9 C22.3403125 8.3503125 22.680625 7.700625 23.03125 7.03125 C26.94293157 0.28984135 26.94293157 0.28984135 30.1796875 -0.59765625 C32.375 -0.5625 32.375 -0.5625 36 0 C36.83848804 1.45537568 37.67063934 2.91440373 38.5 4.375 C38.9640625 5.18710937 39.428125 5.99921875 39.90625 6.8359375 C41 9 41 9 41 11 C39.02 11 37.04 11 35 11 C35 10.34 35 9.68 35 9 C32.69 9 30.38 9 28 9 C28 9.66 28 10.32 28 11 C26.04196493 11.05389087 24.08351091 11.09274217 22.125 11.125 C21.03445312 11.14820313 19.94390625 11.17140625 18.8203125 11.1953125 C16 11 16 11 14 9 C13.67 9.66 13.34 10.32 13 11 C10.125 11.1875 10.125 11.1875 7 11 C6.34 10.01 5.68 9.02 5 8 C4.67 8.99 4.34 9.98 4 11 C2.02 11 0.04 11 -2 11 C-1.34 7.37 -0.68 3.74 0 0 Z M31 3 C31 3.99 31 4.98 31 6 C31.66 5.67 32.32 5.34 33 5 C32.34 4.34 31.68 3.68 31 3 Z " fill="#7C9E0B" transform="translate(53,46)"/>
<path d="M0 0 C-0.33 1.32 -0.66 2.64 -1 4 C-0.34 4 0.32 4 1 4 C0.835 4.598125 0.67 5.19625 0.5 5.8125 C-0.1114124 8.11344336 -0.1114124 8.11344336 0 11 C-1.32 11.33 -2.64 11.66 -4 12 C-3.67 12.99 -3.34 13.98 -3 15 C-10.57290891 15.50114838 -15.47801125 14.98565979 -22 11 C-23 10 -23 10 -23.375 7.6875 C-23 5 -23 5 -21.125 2.8125 C-15.55434752 -0.41847844 -6.07056941 -3.0352847 0 0 Z " fill="#A2C93D" transform="translate(143,24)"/>
<path d="M0 0 C1.98 0 3.96 0 6 0 C6.66 1.32 7.32 2.64 8 4 C8.66 2.68 9.32 1.36 10 0 C12.8125 -0.25 12.8125 -0.25 16 0 C17.875 2 17.875 2 19 4 C19.66 2.68 20.32 1.36 21 0 C22.98 0 24.96 0 27 0 C26.52269162 1.4589426 26.04308958 2.91713496 25.5625 4.375 C25.29566406 5.18710937 25.02882812 5.99921875 24.75390625 6.8359375 C24 9 24 9 23 11 C20.25 11.25 20.25 11.25 17 11 C14.625 9 14.625 9 13 7 C12.62875 7.66 12.2575 8.32 11.875 9 C10 11 10 11 6.8125 11.25 C5.884375 11.1675 4.95625 11.085 4 11 C3.32880451 9.5437455 2.66318193 8.08492133 2 6.625 C1.62875 5.81289063 1.2575 5.00078125 0.875 4.1640625 C0 2 0 2 0 0 Z " fill="#A1C43F" transform="translate(124,46)"/>
<path d="M0 0 C9.34993532 0.7923674 9.34993532 0.7923674 13 4 C13.8125 7.1875 13.8125 7.1875 14 10 C9.49447685 13.10380484 6.33603365 15.15304973 0.8125 15.0625 C-1.0746875 15.0315625 -1.0746875 15.0315625 -3 15 C-3.33 14.01 -3.66 13.02 -4 12 C-2.68 11.34 -1.36 10.68 0 10 C-0.66 8.68 -1.32 7.36 -2 6 C-1.01 6 -0.02 6 1 6 C1 5.34 1 4.68 1 4 C0.34 4 -0.32 4 -1 4 C-0.67 2.68 -0.34 1.36 0 0 Z " fill="#7A9E07" transform="translate(143,24)"/>
<path d="M0 0 C3.93774177 -0.36630156 5.56539771 -0.30233203 8.875 2 C9.926875 2.99 9.926875 2.99 11 4 C11.33 2.68 11.66 1.36 12 0 C13.98 0 15.96 0 18 0 C18 3.63 18 7.26 18 11 C11.80480491 11 11.28432818 9.98542156 7 6 C6.67 7.65 6.34 9.3 6 11 C4.33388095 11.042721 2.66617115 11.04063832 1 11 C0 10 0 10 -0.09765625 7.71484375 C-0.08605469 6.79832031 -0.07445312 5.88179687 -0.0625 4.9375 C-0.05347656 4.01839844 -0.04445312 3.09929688 -0.03515625 2.15234375 C-0.02355469 1.44207031 -0.01195312 0.73179688 0 0 Z " fill="#ABCD39" transform="translate(197,46)"/>
<path d="M0 0 C1.74796875 -0.02126953 1.74796875 -0.02126953 3.53125 -0.04296875 C6.5 0.1875 6.5 0.1875 8.5 2.1875 C8.8125 5.6875 8.8125 5.6875 8.5 9.1875 C5.05324591 11.48533606 3.56671888 11.48504883 -0.5 11.5 C-1.551875 11.51675781 -2.60375 11.53351562 -3.6875 11.55078125 C-6.5 11.1875 -6.5 11.1875 -8.38671875 9.89453125 C-9.5 8.1875 -9.5 8.1875 -9.3125 4.5625 C-9.044375 3.44875 -8.77625 2.335 -8.5 1.1875 C-5.65161879 -0.2366906 -3.17212092 0.01754492 0 0 Z M-3.5 3.1875 C-3.17 4.8375 -2.84 6.4875 -2.5 8.1875 C-0.85 8.1875 0.8 8.1875 2.5 8.1875 C3.09070014 6.24146726 3.09070014 6.24146726 3.5 4.1875 C2.37465895 2.83131501 2.37465895 2.83131501 -0.5625 3.125 C-1.531875 3.145625 -2.50125 3.16625 -3.5 3.1875 Z " fill="#7BA009" transform="translate(41.5,45.8125)"/>
<path d="M0 0 C1.93166016 0.01740234 1.93166016 0.01740234 3.90234375 0.03515625 C5.19269531 0.04417969 6.48304688 0.05320313 7.8125 0.0625 C8.81152344 0.07410156 9.81054688 0.08570313 10.83984375 0.09765625 C10.83984375 1.08765625 10.83984375 2.07765625 10.83984375 3.09765625 C9.84984375 3.59265625 9.84984375 3.59265625 8.83984375 4.09765625 C8.83984375 5.08765625 8.83984375 6.07765625 8.83984375 7.09765625 C9.49984375 7.42765625 10.15984375 7.75765625 10.83984375 8.09765625 C10.83984375 9.08765625 10.83984375 10.07765625 10.83984375 11.09765625 C8.52740583 11.12451037 6.21488105 11.14398466 3.90234375 11.16015625 C2.61457031 11.17175781 1.32679688 11.18335938 0 11.1953125 C-3.16015625 11.09765625 -3.16015625 11.09765625 -4.16015625 10.09765625 C-4.25806195 8.60027501 -4.28990489 7.09822733 -4.28515625 5.59765625 C-4.28773438 4.78296875 -4.2903125 3.96828125 -4.29296875 3.12890625 C-4.07207859 -0.24941379 -3.47186982 0.10728893 0 0 Z " fill="#A5C842" transform="translate(221.16015625,45.90234375)"/>
<path d="M0 0 C1.09570312 0.00902344 2.19140625 0.01804688 3.3203125 0.02734375 C4.16335937 0.03894531 5.00640625 0.05054688 5.875 0.0625 C5.66875 0.68125 5.4625 1.3 5.25 1.9375 C5.12625 2.63875 5.0025 3.34 4.875 4.0625 C5.535 4.7225 6.195 5.3825 6.875 6.0625 C6.33928571 9.59821429 6.33928571 9.59821429 4.875 11.0625 C2.68860547 11.13508946 0.49999611 11.14623783 -1.6875 11.125 C-3.48380859 11.11146484 -3.48380859 11.11146484 -5.31640625 11.09765625 C-6.24324219 11.08605469 -7.17007813 11.07445312 -8.125 11.0625 C-8.125 10.0725 -8.125 9.0825 -8.125 8.0625 C-7.135 7.7325 -6.145 7.4025 -5.125 7.0625 C-6.115 6.4025 -7.105 5.7425 -8.125 5.0625 C-8.125 3.7425 -8.125 2.4225 -8.125 1.0625 C-5.36047967 -0.31976016 -3.0788637 -0.03275387 0 0 Z " fill="#A4C940" transform="translate(241.125,45.9375)"/>
<path d="M0 0 C1.09570312 0.00902344 2.19140625 0.01804688 3.3203125 0.02734375 C4.16335937 0.03894531 5.00640625 0.05054688 5.875 0.0625 C5.545 1.3825 5.215 2.7025 4.875 4.0625 C5.535 4.3925 6.195 4.7225 6.875 5.0625 C6 9.9375 6 9.9375 4.875 11.0625 C2.68860547 11.13508946 0.49999611 11.14623783 -1.6875 11.125 C-3.48380859 11.11146484 -3.48380859 11.11146484 -5.31640625 11.09765625 C-6.24324219 11.08605469 -7.17007812 11.07445312 -8.125 11.0625 C-8.125 10.0725 -8.125 9.0825 -8.125 8.0625 C-7.135 7.7325 -6.145 7.4025 -5.125 7.0625 C-6.115 6.4025 -7.105 5.7425 -8.125 5.0625 C-8.125 3.7425 -8.125 2.4225 -8.125 1.0625 C-5.36047967 -0.31976016 -3.0788637 -0.03275387 0 0 Z " fill="#7C9E0D" transform="translate(24.125,45.9375)"/>
<path d="M0 0 C1.79244141 0.01740234 1.79244141 0.01740234 3.62109375 0.03515625 C5.41740234 0.04869141 5.41740234 0.04869141 7.25 0.0625 C8.17683594 0.07410156 9.10367188 0.08570313 10.05859375 0.09765625 C9.87296875 1.17015625 9.68734375 2.24265625 9.49609375 3.34765625 C9.11465628 6.61712031 9.1605689 8.09093603 10.05859375 11.09765625 C7.91282738 11.12451563 5.7669673 11.14398713 3.62109375 11.16015625 C2.42613281 11.17175781 1.23117188 11.18335938 0 11.1953125 C-2.94140625 11.09765625 -2.94140625 11.09765625 -3.94140625 10.09765625 C-4.03931195 8.60027501 -4.07115489 7.09822733 -4.06640625 5.59765625 C-4.06898438 4.78296875 -4.0715625 3.96828125 -4.07421875 3.12890625 C-3.8603132 -0.1425904 -3.33729602 0.1108 0 0 Z " fill="#A3C840" transform="translate(155.94140625,45.90234375)"/>
<path d="M0 0 C3.96 0 7.92 0 12 0 C12.33 3.3 12.66 6.6 13 10 C10.23547967 11.38226016 7.9538637 11.09525387 4.875 11.0625 C3.77929688 11.05347656 2.68359375 11.04445313 1.5546875 11.03515625 C0.29011719 11.01775391 0.29011719 11.01775391 -1 11 C-1 10.01 -1 9.02 -1 8 C-0.34 7.67 0.32 7.34 1 7 C0.01 6.01 -0.98 5.02 -2 4 C-1.34 2.68 -0.68 1.36 0 0 Z " fill="#A4C840" transform="translate(251,46)"/>
<path d="M0 0 C-2.6206285 1.36296081 -5.2100127 2.47299267 -8 3.4375 C-11.10771855 4.56967999 -13.41318621 5.9106504 -16 8 C-16.66 8 -17.32 8 -18 8 C-17.25184487 13.54828245 -17.25184487 13.54828245 -13.875 17.5 C-13.25625 17.665 -12.6375 17.83 -12 18 C-12.33 18.33 -12.66 18.66 -13 19 C-19.0495283 18.55188679 -19.0495283 18.55188679 -21.9375 16.875 C-23.69937187 13.76581435 -23.48159369 11.49155423 -23 8 C-17.53591756 0.24452815 -8.77091122 -0.41766244 0 0 Z " fill="#A3C740" transform="translate(133,20)"/>
<path d="M0 0 C0.33 0.66 0.66 1.32 1 2 C0.67 2.66 0.34 3.32 0 4 C0.66 4 1.32 4 2 4 C1.835 4.598125 1.67 5.19625 1.5 5.8125 C0.8885876 8.11344336 0.8885876 8.11344336 1 11 C-0.32 11.33 -1.64 11.66 -3 12 C-2.67 12.99 -2.34 13.98 -2 15 C-5.63 14.01 -9.26 13.02 -13 12 C-13 10.35 -13 8.7 -13 7 C-10.525 7.495 -10.525 7.495 -8 8 C-8.99 7.01 -9.98 6.02 -11 5 C-9.68 5 -8.36 5 -7 5 C-7.33 4.01 -7.66 3.02 -8 2 C-6.68 2.66 -5.36 3.32 -4 4 C-2.68 2.68 -1.36 1.36 0 0 Z " fill="#C2D785" transform="translate(142,24)"/>
<path d="M0 0 C0.56976563 0.46148438 1.13953125 0.92296875 1.7265625 1.3984375 C1.3965625 2.0584375 1.0665625 2.7184375 0.7265625 3.3984375 C-2.35904491 2.91631134 -4.77218103 2.17677371 -7.6484375 0.8984375 C-18.37916195 -3.19618104 -30.27645701 -1.651847 -41.2734375 0.3984375 C-30.71217822 -8.26471528 -11.06855373 -7.79743476 0 0 Z " fill="#7D9E0D" transform="translate(162.2734375,24.6015625)"/>
<path d="M0 0 C1.98 0 3.96 0 6 0 C6 2.64 6 5.28 6 8 C8.64 8 11.28 8 14 8 C14 8.99 14 9.98 14 11 C11.85423363 11.02685938 9.70837355 11.04633088 7.5625 11.0625 C6.36753906 11.07410156 5.17257813 11.08570313 3.94140625 11.09765625 C1 11 1 11 0 10 C-0.07205511 8.31391034 -0.08386068 6.62499341 -0.0625 4.9375 C-0.05347656 4.01839844 -0.04445312 3.09929688 -0.03515625 2.15234375 C-0.02355469 1.44207031 -0.01195312 0.73179688 0 0 Z " fill="#A3C544" transform="translate(168,46)"/>
<path d="M0 0 C1.98 0 3.96 0 6 0 C6 2.64 6 5.28 6 8 C8.64 8 11.28 8 14 8 C14 8.99 14 9.98 14 11 C12.04196493 11.05389087 10.08351091 11.09274217 8.125 11.125 C7.03445312 11.14820313 5.94390625 11.17140625 4.8203125 11.1953125 C2 11 2 11 0 9 C-0.1953125 6.8359375 -0.1953125 6.8359375 -0.125 4.375 C-0.10695313 3.55773438 -0.08890625 2.74046875 -0.0703125 1.8984375 C-0.04710938 1.27195313 -0.02390625 0.64546875 0 0 Z " fill="#7EA110" transform="translate(95,46)"/>
<path d="M0 0 C1.98 0 3.96 0 6 0 C6 2.64 6 5.28 6 8 C8.31 8 10.62 8 13 8 C13 8.99 13 9.98 13 11 C11.02090602 11.02686553 9.04171029 11.04633375 7.0625 11.0625 C5.96035156 11.07410156 4.85820312 11.08570313 3.72265625 11.09765625 C1 11 1 11 0 10 C-0.07205511 8.31391034 -0.08386068 6.62499341 -0.0625 4.9375 C-0.05347656 4.01839844 -0.04445312 3.09929688 -0.03515625 2.15234375 C-0.02355469 1.44207031 -0.01195312 0.73179688 0 0 Z " fill="#A5C742" transform="translate(183,46)"/>
<path d="M0 0 C1.98 0 3.96 0 6 0 C6 3.63 6 7.26 6 11 C4.02 11 2.04 11 0 11 C0 7.37 0 3.74 0 0 Z " fill="#799D07" transform="translate(110,46)"/>
<path d="M0 0 C1.65 0 3.3 0 5 0 C5 3.63 5 7.26 5 11 C3.35 11 1.7 11 0 11 C-1.37432457 7.18243176 -0.67975039 3.92744671 0 0 Z " fill="#A5C945" transform="translate(210,46)"/>
<path d="M0 0 C0.33 0.66 0.66 1.32 1 2 C0.67 2.66 0.34 3.32 0 4 C0.66 4 1.32 4 2 4 C2 4.66 2 5.32 2 6 C0.02 6.33 -1.96 6.66 -4 7 C-4 8.65 -4 10.3 -4 12 C-4.99 11.34 -5.98 10.68 -7 10 C-6.67 9.67 -6.34 9.34 -6 9 C-7.65 8.01 -9.3 7.02 -11 6 C-9.68 5.67 -8.36 5.34 -7 5 C-7.33 4.01 -7.66 3.02 -8 2 C-6.68 2.66 -5.36 3.32 -4 4 C-2.68 2.68 -1.36 1.36 0 0 Z " fill="#DEE9BC" transform="translate(142,24)"/>
<path d="M0 0 C-2.60077989 1.3496252 -5.17376986 2.46882627 -7.9375 3.4375 C-11.20791695 4.63563406 -14.07681554 6.0816602 -17 8 C-16.375 5.125 -16.375 5.125 -15 2 C-10.25231954 -0.54753586 -5.24876958 -0.20995078 0 0 Z " fill="#B5D068" transform="translate(133,20)"/>
<path d="M0 0 C3.3 0 6.6 0 10 0 C5.577168 3.317124 4.28089024 3.30466674 -1 3 C-0.67 2.01 -0.34 1.02 0 0 Z " fill="#ACCC4D" transform="translate(253,50)"/>
<path d="M0 0 C0 0.99 0 1.98 0 3 C-2.64 3 -5.28 3 -8 3 C-5.53387212 -0.1151089 -3.89156016 -0.31553191 0 0 Z " fill="#A7C555" transform="translate(165,50)"/>
<path d="M0 0 C0.99 0 1.98 0 3 0 C2.75 1.875 2.75 1.875 2 4 C-0.0625 5.25 -0.0625 5.25 -2 6 C-1.34 4.02 -0.68 2.04 0 0 Z " fill="#B0C864" transform="translate(118,22)"/>
</svg>
