<svg width="50" height="50" viewBox="0 0 50 50" fill="none" xmlns="http://www.w3.org/2000/svg">
<rect width="50" height="50" rx="5" fill="white" fill-opacity="0.1"/>
<path d="M25 35.4166C30.7529 35.4166 35.4167 30.7528 35.4167 24.9999C35.4167 19.247 30.7529 14.5833 25 14.5833C19.247 14.5833 14.5833 19.247 14.5833 24.9999C14.5833 26.4363 14.874 27.8047 15.3998 29.0496C15.6904 29.7375 15.8357 30.0816 15.8537 30.3416C15.8717 30.6016 15.7952 30.8875 15.6421 31.4595L14.5833 35.4166L18.5404 34.3578C19.1124 34.2048 19.3984 34.1283 19.6584 34.1463C19.9184 34.1642 20.2624 34.3095 20.9504 34.6001C22.1953 35.1259 23.5637 35.4166 25 35.4166Z" stroke="#6B7280" stroke-width="2" stroke-linejoin="round"/>
<path d="M21.446 25.3931L22.3532 24.2663C22.7356 23.7914 23.2082 23.3494 23.2453 22.717C23.2546 22.5573 23.1423 21.8403 22.9175 20.4062C22.8292 19.8426 22.303 19.7917 21.8472 19.7917C21.2533 19.7917 20.9563 19.7917 20.6614 19.9264C20.2887 20.0967 19.906 20.5754 19.822 20.9765C19.7556 21.2938 19.805 21.5124 19.9037 21.9498C20.3231 23.8072 21.3071 25.6415 22.8328 27.1673C24.3585 28.693 26.1929 29.677 28.0503 30.0963C28.4876 30.1951 28.7062 30.2445 29.0236 30.178C29.4247 30.094 29.9033 29.7114 30.0736 29.3386C30.2083 29.0437 30.2083 28.7469 30.2083 28.1529C30.2083 27.6971 30.1575 27.1709 29.5938 27.0826C28.1598 26.8578 27.4428 26.7455 27.283 26.7548C26.6507 26.7919 26.2086 27.2645 25.7337 27.6469L24.607 28.554" stroke="#6B7280" stroke-width="2"/>
</svg>
